<svg xmlns="http://www.w3.org/2000/svg" viewBox="0 0 512 512" fill="none" shape-rendering="geometricPrecision">

  <defs>
    <linearGradient id="BG" x1="0" y1="0" x2="0" y2="1">
      <stop offset="0" stop-color="#2a8a85"></stop>
      <stop offset="1" stop-color="#0c3a37"></stop>
    </linearGradient>
    <radialGradient id="GL" cx="30%" cy="22%" r="75%">
      <stop offset="0" stop-color="#7fd9d2" stop-opacity="0.42"></stop>
      <stop offset="1" stop-color="#7fd9d2" stop-opacity="0"></stop>
    </radialGradient>
  </defs>
  <rect width="512" height="512" rx="104" fill="url(#BG)"></rect>
  <rect width="512" height="512" rx="104" fill="url(#GL)"></rect>
  <g stroke="#b5ece6" stroke-opacity="0.09" stroke-width="1.5">
    <path d="M64 64V448M128 64V448M192 64V448M256 64V448M320 64V448M384 64V448M448 64V448"></path>
    <path d="M64 64H448M64 128H448M64 192H448M64 256H448M64 320H448M64 384H448M64 448H448"></path>
  </g>
  <defs>
    <clipPath id="uipclip"><rect x="96" y="112" width="304" height="270" rx="10" transform="rotate(-4 256 256)"></rect></clipPath>
  </defs>

  
  <rect x="102" y="120" width="304" height="270" rx="12" fill="#061a18" fill-opacity="0.45" transform="rotate(-4 256 256) translate(6 8)"></rect>

  
  <rect x="96" y="112" width="304" height="270" rx="12" fill="#dff7f2" stroke="#08332f" stroke-width="6" transform="rotate(-4 256 256)"></rect>

  
  <g clip-path="url(#uipclip)" transform="rotate(-4 256 256)">
    
    <rect x="96" y="112" width="148" height="110" fill="#2bbfae" fill-opacity="0.55"></rect>
    
    <rect x="244" y="112" width="156" height="110" fill="#ff9a4d" fill-opacity="0.40"></rect>
    
    <rect x="96" y="222" width="148" height="160" fill="#7fe6dc" fill-opacity="0.35"></rect>
    
    <rect x="244" y="222" width="156" height="160" fill="#2bbfae" fill-opacity="0.30"></rect>
    
    <rect x="230" y="112" width="16" height="270" fill="#ffffff" fill-opacity="0.50"></rect>
    <rect x="96" y="208" width="304" height="16" fill="#ffffff" fill-opacity="0.50"></rect>
  </g>

  
  <rect x="96" y="112" width="304" height="270" rx="12" fill="none" stroke="#08332f" stroke-width="6" transform="rotate(-4 256 256)"></rect>

  
  <circle cx="366" cy="346" r="46" fill="#ff8a3d" stroke="#08332f" stroke-width="7"></circle>
  <circle cx="366" cy="346" r="36" fill="none" stroke="#08332f" stroke-width="3" stroke-dasharray="4 3"></circle>
  
  <path d="M348 346 L360 360 L386 328" fill="none" stroke="#08332f" stroke-width="9" stroke-linecap="round" stroke-linejoin="round"></path>

<path d="M256 68 L272 82 L256 96 L240 82 Z" fill="#5eead4" stroke="#08332f" stroke-width="4"></path>
</svg>