<svg xmlns="http://www.w3.org/2000/svg" viewBox="0 0 64 64" role="img" aria-label="PlanX UIP Toolset">
  <defs>
    <linearGradient id="bg" x1="7" y1="6" x2="57" y2="58" gradientUnits="userSpaceOnUse">
      <stop offset="0" stop-color="#06121e"/>
      <stop offset=".55" stop-color="#172554"/>
      <stop offset="1" stop-color="#0f766e"/>
    </linearGradient>
    <filter id="shadow" x="-20%" y="-20%" width="140%" height="140%">
      <feDropShadow dx="0" dy="2" stdDeviation="2" flood-color="#020617" flood-opacity=".34"/>
    </filter>
  </defs>
  <rect x="3" y="3" width="58" height="58" rx="15" fill="url(#bg)"/>
  <path d="M11 34 31 9.5 54 22 34 57Z" fill="#ecfeff" filter="url(#shadow)"/>
  <path d="M15 34.5 29.5 16.5l8 11-15 10.5Z" fill="#bbf7d0"/>
  <path d="M30 16 48 25.5 40.5 38 37.5 28Z" fill="#bfdbfe"/>
  <path d="M23 40 38.5 29.5 43 41 30.5 48.5Z" fill="#fed7aa"/>
  <path d="M43.5 42 49 28.5l3.5 2-11 19Z" fill="#ddd6fe"/>
  <path d="M31 50 44 42.5 35 55Z" fill="#fecaca"/>
  <path d="M13.5 44c10-4.5 17-3 23 0 6.5 3.2 12 2.7 18-1.5" fill="none" stroke="#0f172a" stroke-width="4.2" stroke-linecap="round"/>
  <path d="M13.8 44c10-4.5 17-3 23 0 6.5 3.2 12 2.7 18-1.5" fill="none" stroke="#f8fafc" stroke-width="1.2" stroke-linecap="round" opacity=".8"/>
  <path d="M20 32.5 43 45M28 22l14 23M18 38l29-17" stroke="#0f172a" stroke-opacity=".22" stroke-width="1.2"/>
  <circle cx="22" cy="42" r="2.2" fill="#0f766e" stroke="#ecfeff" stroke-width="1"/>
  <circle cx="37" cy="44" r="2.2" fill="#0f766e" stroke="#ecfeff" stroke-width="1"/>
  <circle cx="43" cy="28" r="2.2" fill="#0f766e" stroke="#ecfeff" stroke-width="1"/>
  <rect x="12" y="10" width="24" height="10" rx="4" fill="#0f172a" opacity=".86"/>
  <path d="M17 13v4.2c0 1.4 2.8 1.4 2.8 0V13M24 13v5M29 18v-5h3.2c2.2 0 2.2 3.1 0 3.1H29" fill="none" stroke="#d9fbf5" stroke-width="1.8" stroke-linecap="round"/>
</svg>
